<svg class="img-fluid" id="outputsvg" xmlns="http://www.w3.org/2000/svg" style="transform: matrix(0.769231, 0, 0, 0.769231, 0, 0); transform-origin: 50% 50% 0px; cursor: move; max-height: none; transition: none;" width="619" height="263" viewBox="0 0 6190 2630"><g id="l2NaYaOzr9qttZhuckMznxC" fill="rgb(246,147,1)" style="transform: none;"><g><path id="pFavezwkQ" d="M747 2438 c-136 -84 -270 -167 -297 -184 -79 -49 -198 -154 -247 -219 -25 -33 -65 -100 -89 -150 -76 -157 -77 -162 -81 -910 -5 -763 -14 -697 100 -734 57 -19 356 -96 487 -126 30 -7 126 -31 213 -54 87 -23 177 -41 200 -41 56 0 905 210 960 237 57 29 57 26 57 704 0 586 -1 626 -20 721 -36 173 -97 295 -204 406 -59 62 -174 154 -232 186 -16 9 -58 35 -94 57 -36 23 -147 90 -246 150 -148 89 -189 109 -221 109 -32 0 -78 -24 -286 -152z m431 -75 c79 -49 180 -111 225 -138 341 -209 435 -314 487 -551 18 -83 20 -130 20 -690 0 -470 -3 -604 -12 -612 -7 -5 -87 -28 -178 -50 -284 -70 -573 -140 -633 -153 -64 -14 -78 -11 -302 46 -267 69 -382 98 -465 116 -47 11 -100 24 -118 30 l-33 11 4 646 3 647 25 70 c14 39 37 94 52 123 36 69 152 190 240 250 75 51 529 340 537 341 2 1 69 -38 148 -86z"></path><path id="p5EziL8va" d="M588 2021 c-55 -11 -113 -55 -145 -108 -25 -44 -28 -57 -28 -143 0 -74 4 -103 19 -130 43 -81 106 -120 205 -129 l64 -6 16 -49 16 -50 79 -26 c88 -29 106 -46 106 -105 0 -37 -6 -46 -62 -102 -54 -53 -71 -63 -118 -72 -187 -38 -309 -176 -333 -376 -19 -150 25 -215 144 -215 59 0 59 0 59 -30 0 -19 7 -33 19 -40 13 -6 161 -10 414 -10 369 0 395 1 410 18 10 10 17 26 17 35 0 13 9 17 34 17 98 0 159 44 171 124 11 70 -11 191 -47 256 -62 114 -187 209 -298 225 -37 6 -55 17 -102 63 -57 56 -58 57 -58 114 0 66 7 72 112 102 67 20 75 29 80 81 l3 40 117 5 c95 4 120 8 137 24 27 24 27 69 0 107 -15 22 -22 51 -26 117 -5 84 -4 91 21 135 33 55 31 83 -7 111 -28 21 -38 21 -505 23 -262 0 -494 -2 -514 -6z m870 -258 l3 -113 -431 0 c-413 0 -431 1 -449 19 -30 30 -44 93 -31 141 20 73 4 71 480 68 l425 -3 3 -112z m-761 -837 c-16 -42 -31 -111 -41 -191 l-12 -90 -54 0 -55 0 3 49 c5 69 50 163 100 209 43 38 68 48 59 23z m736 -17 c62 -51 107 -154 107 -244 0 -23 -3 -25 -53 -25 l-54 0 -12 84 c-6 46 -18 109 -26 140 -23 90 -20 93 38 45z"></path><path id="pdNRSORzM" d="M4425 2443 c-64 -14 -115 -37 -140 -63 -23 -24 -27 -35 -21 -61 7 -39 32 -69 56 -69 9 0 43 9 75 20 138 48 262 4 280 -98 8 -52 -1 -69 -25 -47 -31 28 -91 44 -163 45 -110 0 -174 -37 -225 -135 -24 -45 -27 -60 -27 -160 0 -97 3 -116 25 -158 53 -106 158 -165 272 -154 47 4 68 12 99 37 l39 31 24 -28 c21 -24 32 -28 74 -28 85 0 82 -13 82 324 0 333 -5 368 -64 437 -43 50 -115 89 -190 103 -59 11 -133 13 -171 4z m191 -438 c60 -39 82 -155 41 -216 -52 -78 -140 -88 -204 -24 -31 31 -33 37 -33 102 0 80 13 109 60 141 40 27 92 26 136 -3z"></path><path id="pdE02SSCb" d="M3155 2203 c-199 -80 -259 -376 -111 -550 15 -18 56 -46 91 -63 112 -53 242 -34 338 50 71 63 115 193 87 260 l-12 30 -193 0 c-105 0 -194 3 -198 6 -12 13 33 83 68 104 49 30 131 30 195 0 46 -22 50 -22 74 -6 72 47 21 144 -93 176 -56 15 -200 11 -246 -7z m235 -414 c0 -28 -57 -78 -98 -85 -22 -4 -47 0 -73 12 -42 19 -59 39 -59 73 0 20 5 21 115 21 109 0 115 -1 115 -21z"></path><path id="p3hyT3Z79" d="M3715 2202 c-49 -24 -73 -49 -91 -99 -42 -119 17 -231 142 -269 26 -8 87 -14 135 -14 49 0 91 -5 94 -10 4 -6 4 -24 0 -40 -14 -66 -129 -79 -220 -26 -75 44 -125 26 -125 -45 0 -48 40 -84 124 -115 135 -49 291 -20 351 65 l30 43 0 251 0 252 -36 9 c-45 11 -82 2 -108 -25 l-19 -21 -43 29 c-56 37 -171 44 -234 15z m230 -154 c24 -22 38 -45 42 -70 l5 -36 -46 -7 c-97 -15 -166 18 -166 78 0 47 25 67 82 67 41 0 54 -5 83 -32z"></path><path id="pauAAF2vi" d="M5039 2197 c-47 -25 -82 -68 -100 -126 -17 -53 -24 -457 -9 -476 17 -20 129 -20 156 -1 17 13 19 31 24 215 5 189 6 202 27 222 14 14 38 23 70 26 42 5 53 1 81 -22 l32 -27 0 -203 c0 -158 3 -205 14 -214 21 -18 102 -25 135 -12 20 9 31 22 35 43 3 17 6 149 6 293 0 208 -3 265 -14 274 -7 6 -40 14 -73 17 -48 5 -62 3 -76 -10 -9 -10 -17 -24 -17 -32 0 -19 -14 -18 -31 3 -46 54 -183 70 -260 30z"></path><path id="p1GO1w1Shf" d="M5774 2209 c-52 -15 -127 -73 -157 -121 -58 -93 -71 -202 -36 -314 67 -218 339 -285 500 -124 38 38 52 62 69 119 23 75 21 112 -7 144 -14 15 -38 17 -200 17 -177 0 -183 1 -183 20 0 30 27 67 67 91 48 30 128 29 193 -1 46 -21 51 -22 73 -7 32 21 42 62 23 92 -21 32 -73 70 -115 84 -40 13 -182 13 -227 0z m216 -406 c0 -23 -45 -76 -75 -89 -44 -18 -69 -18 -106 2 -29 15 -63 70 -53 86 7 10 234 10 234 1z"></path><path id="pB1V9IBdN" d="M2435 2190 c-10 -16 -17 -804 -8 -817 11 -16 92 -28 127 -19 57 14 56 10 56 352 l0 314 130 0 c76 0 139 5 154 11 44 20 59 114 25 156 -9 10 -61 13 -245 13 -142 0 -235 -4 -239 -10z"></path><path id="pRWlKhLyS" d="M5066 1431 c-4 -6 0 -23 8 -39 8 -16 29 -65 46 -108 l31 -78 -47 -120 c-25 -67 -66 -171 -90 -231 -52 -132 -84 -224 -84 -240 0 -17 48 -36 98 -38 30 -1 47 4 61 18 18 20 75 152 122 288 13 37 27 67 30 67 6 0 43 -91 122 -299 25 -66 60 -85 132 -72 25 5 49 11 52 15 4 3 -6 41 -21 84 -15 42 -50 138 -76 212 -46 129 -113 312 -159 431 -12 30 -35 68 -51 84 -27 25 -40 30 -99 33 -42 3 -71 0 -75 -7z"></path><path id="p6o0dJfYQ" d="M2580 1205 c-59 -16 -120 -48 -143 -73 -30 -33 -27 -90 7 -118 32 -28 41 -29 81 -8 55 30 138 54 182 54 81 0 143 -48 143 -111 0 -34 -35 -56 -154 -94 -151 -48 -218 -91 -253 -163 -22 -46 -25 -62 -21 -120 9 -108 58 -175 168 -224 69 -32 237 -31 305 0 57 26 103 66 116 100 12 32 -12 76 -51 92 -27 11 -36 10 -73 -8 -70 -34 -121 -45 -172 -37 -86 12 -124 84 -71 134 14 13 61 33 109 47 212 59 287 129 287 265 0 124 -44 195 -152 245 -55 25 -76 29 -163 31 -57 1 -119 -4 -145 -12z"></path><path id="p134n4X2UG" d="M3255 1199 c-80 -40 -80 -38 -83 -242 -3 -224 -4 -227 -42 -227 -31 0 -50 -22 -50 -60 0 -34 27 -77 53 -84 21 -5 25 -14 30 -58 5 -36 13 -58 27 -70 28 -23 84 -33 123 -21 31 9 32 10 35 75 3 65 4 67 33 73 16 4 47 4 68 0 47 -8 64 9 63 64 -1 71 -13 81 -92 81 l-70 0 0 146 c0 81 5 154 10 165 9 15 22 19 63 19 29 0 57 4 63 8 19 12 36 89 25 110 -23 44 -185 57 -256 21z"></path><path id="p118D4cRap" d="M3707 1205 c-51 -18 -85 -50 -111 -105 -19 -41 -21 -66 -24 -277 l-4 -232 39 -10 c54 -15 74 -14 111 9 l32 20 0 157 c1 182 9 229 45 261 38 32 117 31 150 -3 25 -24 25 -25 25 -218 0 -143 3 -198 13 -211 15 -21 132 -34 157 -17 13 9 15 56 18 303 4 336 9 318 -89 318 -56 0 -78 -10 -93 -42 -5 -10 -7 -10 -12 1 -4 7 -29 24 -58 37 -59 27 -138 31 -199 9z"></path><path id="p145JnB7mR" d="M4385 1192 c-109 -52 -155 -139 -155 -292 0 -126 23 -192 89 -260 66 -68 157 -94 246 -69 21 6 53 22 70 35 18 13 35 24 38 24 4 0 7 -63 7 -140 0 -127 2 -140 19 -150 47 -25 154 3 165 43 11 40 7 777 -4 798 -9 16 -22 19 -75 19 -56 0 -66 -3 -83 -25 -17 -21 -22 -23 -31 -11 -7 8 -32 24 -56 35 -67 32 -154 29 -230 -7z m243 -162 c42 -26 62 -73 62 -145 0 -72 -20 -110 -72 -136 -66 -34 -142 -15 -178 44 -26 42 -28 161 -4 196 42 59 130 78 192 41z"></path></g></g></svg>